<?xml version="1.0" encoding="utf-8"?>
<!-- Generator: Adobe Illustrator 21.0.0, SVG Export Plug-In . SVG Version: 6.00 Build 0)  -->
<svg version="1.1" id="Layer_1" xmlns="http://www.w3.org/2000/svg" xmlns:xlink="http://www.w3.org/1999/xlink" x="0px" y="0px"
	 width="64px" height="64px" viewBox="0 0 64 64" style="enable-background:new 0 0 64 64;" xml:space="preserve">
<style type="text/css">
	.st0{fill:#3DA542;}
	.st1{fill:#A7D379;}
	.st2{fill:#FFFFFF;}
	.st3{fill:#A9A9A9;}
	.st4{fill:#99A8AE;}
	.st5{fill:#6E8189;}
</style>
<path class="st0" d="M62,12.2c-19.33-8.21-38.67,8.2-58,0c0-1.95,0-5.88,0-7.83c19.33,8.2,38.67-8.21,58,0C62,6.32,62,10.25,62,12.2
	z"/>
<path class="st1" d="M62,19.06c-19.33-8.2-38.67,8.21-58,0c0-1.95,0-5.88,0-7.83c19.33,8.2,38.67-8.21,58,0
	C62,13.18,62,17.11,62,19.06z"/>
<path class="st2" d="M62,25.92c-19.33-8.2-38.67,8.21-58,0c0-1.95,0-5.88,0-7.83c19.33,8.2,38.67-8.21,58,0
	C62,20.04,62,23.96,62,25.92z"/>
<path class="st3" d="M62,32.77c-19.33-8.2-38.67,8.2-58,0c0-1.95,0-5.88,0-7.83c19.33,8.2,38.67-8.21,58,0
	C62,26.89,62,30.82,62,32.77z"/>
<path d="M62,39.63c-19.33-8.2-38.67,8.2-58,0c0-1.95,0-5.88,0-7.83c19.33,8.2,38.67-8.21,58,0C62,33.75,62,37.68,62,39.63z"/>
</svg>
